<svg width="265" height="197" viewBox="0 0 265 197" fill="none" xmlns="http://www.w3.org/2000/svg">
<path d="M58.8197 160L70.567 148.33C42.5222 120.271 27.8794 106.035 19.772 97.7585L70.567 47.1872C71.3384 46.4155 71.9502 45.4993 72.3677 44.491C72.7851 43.4827 73 42.402 73 41.3107C73 40.2193 72.7851 39.1386 72.3677 38.1303C71.9502 37.122 71.3384 36.2059 70.567 35.4341C69.7957 34.6624 68.88 34.0503 67.8722 33.6326C66.8644 33.215 65.7842 33 64.6933 33C63.6025 33 62.5223 33.215 61.5145 33.6326C60.5067 34.0503 59.591 34.6624 58.8197 35.4341L2.39911 91.8819C0.887393 93.468 0.0304728 95.567 0 97.7585C0.00454384 98.8535 0.226249 99.9368 0.652271 100.946C1.07829 101.954 1.70016 102.868 2.48184 103.635L58.8197 160Z" fill="#F9F6FF"/>
<path d="M262.598 92.4261C261.77 91.6814 206.125 36 206.125 36L194.449 47.7485C222.438 75.7134 237.094 90.4404 245.209 98.1348L194.449 148.852C193.287 150.004 192.492 151.475 192.166 153.079C191.84 154.682 191.997 156.347 192.617 157.861C193.238 159.375 194.294 160.672 195.651 161.586C197.009 162.501 198.608 162.993 200.246 163C201.341 162.995 202.425 162.774 203.434 162.348C204.444 161.922 205.358 161.3 206.125 160.518L262.598 104.175C263.366 103.401 263.973 102.485 264.385 101.477C264.797 100.469 265.006 99.3892 265 98.3003C265.006 97.2115 264.797 96.1321 264.385 95.124C263.973 94.116 263.366 93.1991 262.598 92.4261Z" fill="#F9F6FF"/>
<path d="M110.328 196.996C112.229 197.052 114.091 196.457 115.605 195.312C117.119 194.166 118.193 192.539 118.649 190.701L163.828 9.95987C164.263 7.86288 163.866 5.67951 162.719 3.86779C161.573 2.05608 159.766 0.756789 157.678 0.242487C155.59 -0.271816 153.383 0.0388318 151.52 1.10927C149.658 2.1797 148.283 3.92674 147.686 5.9839L102.258 186.725C101.721 188.822 102.03 191.045 103.118 192.918C104.207 194.791 105.988 196.166 108.082 196.748C108.816 196.932 109.572 197.016 110.328 196.996Z" fill="#F9F6FF"/>
</svg>
