<?xml version="1.0"?>
<svg xmlns="http://www.w3.org/2000/svg" xmlns:xlink="http://www.w3.org/1999/xlink" xmlns:svgjs="http://svgjs.com/svgjs" version="1.1" width="512" height="512" x="0" y="0" viewBox="0 0 512 512" style="enable-background:new 0 0 512 512" xml:space="preserve" class=""><g><g xmlns="http://www.w3.org/2000/svg"><path d="m199 416h-25.017v-90c0-5.523-4.477-10-10-10s-10 4.477-10 10v100c0 5.523 4.477 10 10 10h35.017c5.523 0 10-4.477 10-10s-4.477-10-10-10z" fill="#ffffff" data-original="#000000" style="" class=""/><path d="m66.044 436h34.076c20.652 0 37.397-17.165 36.906-37.926-.285-12.057-6.474-22.578-15.715-29.089 4.124-5.409 6.617-12.123 6.741-19.405.315-18.466-15.193-33.58-33.662-33.58h-28.39c-5.523 0-10 4.477-10 10v100c0 5.54 4.504 10.025 10.044 10zm9.956-100h19.047c7.174 0 13.01 5.836 13.01 13.01s-5.836 13.01-13.01 13.01c-2.139 0-19.047.027-19.047.027zm0 46.08c2.708-.011 24.121-.032 24.121-.032 9.328 0 16.917 7.589 16.917 16.917s-7.589 16.917-16.917 16.917c-4.385 0-15.705.042-24.121.076z" fill="#ffffff" data-original="#000000" style="" class=""/><path d="m342.837 376c0 33.084 26.916 60 60 60 31.302 0 53.163-24.673 53.163-60 0-5.523-4.477-10-10-10h-29.915c-5.523 0-10 4.477-10 10s4.477 10 10 10h19.05c-2.725 15.435-12.174 30-32.298 30-22.056 0-40-17.944-40-40s17.944-40 40-40c8.017 0 15.748 2.36 22.357 6.825 4.578 3.093 10.793 1.888 13.884-2.688 3.092-4.577 1.888-10.792-2.688-13.884-9.928-6.708-21.53-10.253-33.553-10.253-33.084 0-60 26.916-60 60z" fill="#ffffff" data-original="#000000" style="" class=""/><path d="m266 316c-33.084 0-60 26.916-60 60s26.916 60 60 60 60-26.916 60-60-26.916-60-60-60zm0 100c-22.056 0-40-17.944-40-40s17.944-40 40-40 40 17.944 40 40-17.944 40-40 40z" fill="#ffffff" data-original="#000000" style="" class=""/><path d="m457 0h-402c-30.327 0-55 24.673-55 55v402c0 30.327 24.673 55 55 55h402c30.327 0 55-24.673 55-55v-402c0-30.327-24.673-55-55-55zm-427 55c0-13.785 11.215-25 25-25h307v50h-332zm452 402c0 13.785-11.215 25-25 25h-402c-13.785 0-25-11.215-25-25v-347h452zm0-377h-90v-50h65c13.785 0 25 11.215 25 25z" fill="#ffffff" data-original="#000000" style="" class=""/><path d="m96 271h320c8.284 0 15-6.716 15-15v-80c0-8.284-6.716-15-15-15h-320c-8.284 0-15 6.716-15 15v80c0 8.284 6.716 15 15 15zm15-80h290v50h-290z" fill="#ffffff" data-original="#000000" style="" class=""/></g></g></svg>
